<?xml version="1.0" standalone="no"?>
<!DOCTYPE svg PUBLIC "-//W3C//DTD SVG 20010904//EN"
 "http://www.w3.org/TR/2001/REC-SVG-20010904/DTD/svg10.dtd">
<svg version="1.0" xmlns="http://www.w3.org/2000/svg"
 width="1024.000000pt" height="1024.000000pt" viewBox="0 0 1024.000000 1024.000000"
 preserveAspectRatio="xMidYMid meet">
<metadata>
Created by potrace 1.11, written by Peter Selinger 2001-2013
</metadata>
<g transform="translate(0.000000,1024.000000) scale(0.100000,-0.100000)"
fill="#000000" stroke="none">
<path d="M2902 7138 c-198 -222 -334 -424 -462 -683 -162 -328 -246 -605 -296
-975 -21 -153 -24 -537 -5 -685 68 -537 246 -1001 543 -1419 459 -644 1161
-1082 1949 -1215 529 -90 1102 -28 1603 173 1046 420 1764 1379 1876 2505 13
133 13 430 0 562 -68 670 -350 1295 -799 1772 l-65 68 -1060 -1060 -1061
-1061 -1060 1060 c-583 583 -1062 1060 -1066 1060 -3 0 -46 -46 -97 -102z"/>
</g>
</svg>
